<svg width="128" height="43" viewBox="0 0 128 43" fill="none" xmlns="http://www.w3.org/2000/svg">
<path d="M102.555 13.7825C104.283 13.7825 106.25 15.2963 106.25 17.3869C106.25 18.565 105.877 19.4748 105.33 20.3058C104.979 20.8355 104.712 21.4453 104.601 21.8866C104.482 22.385 104.222 23.5916 105.684 23.6117C106.635 23.6359 108.975 22.8006 110.866 20.5C112.32 18.6521 113.185 16.3087 113.185 13.7526C113.185 7.77916 108.432 2.93518 102.555 2.93518C96.6769 2.93518 91.9151 7.77916 91.9151 13.7526C91.9151 16.3087 92.7784 18.6521 94.2345 20.5C96.1279 22.8006 98.4668 23.6359 99.4164 23.6117C100.878 23.5916 100.614 22.385 100.5 21.8866C100.393 21.4453 100.124 20.8355 99.7701 20.3058C99.224 19.4748 98.8505 18.565 98.8505 17.3869C98.8547 15.2963 100.819 13.7825 102.555 13.7825ZM121.358 24.7156C120.922 24.3514 120.158 23.8202 118.589 23.5759C116.411 23.2475 114.468 23.7629 113.298 24.2313C111.76 24.8456 109.865 26.2421 108.556 28.0613C107.175 29.9835 106.46 32.8854 107.145 35.9099C107.339 36.761 107.549 37.2409 107.861 37.8377C108.27 38.6488 109.349 39.7813 110.293 39.9855C111.038 40.1412 111.621 39.7084 111.907 39.3814C113.809 37.1581 121.016 28.5483 121.797 27.4489C122.564 26.3564 122.063 25.3066 121.358 24.7156ZM91.8076 24.2313C90.6375 23.7629 88.696 23.2475 86.5182 23.5759C84.9489 23.8202 84.1777 24.3514 83.7475 24.7156C83.0429 25.3066 82.5377 26.3564 83.3088 27.4489C84.0857 28.5483 91.2911 37.1581 93.1929 39.3814C93.4789 39.7084 94.0618 40.1412 94.809 39.9855C95.7586 39.7813 96.8325 38.6488 97.2399 37.8377C97.5571 37.2409 97.7622 36.761 97.9616 35.9099C98.6452 32.8854 97.9193 29.9835 96.551 28.0613C95.2406 26.2421 93.343 24.8456 91.8076 24.2313Z" fill="url(#paint0_linear_20_46)"/>
<path d="M79.1275 32.1058H70.2451L73.8902 27.262H64.0217L60.5053 31.9259C59.1907 33.7794 59.0634 35.6502 59.0634 36.9484V37.6824C59.0634 38.5306 59.5841 38.9918 60.3568 38.9918H79.1275C79.8845 38.9918 80.3954 38.5704 80.3954 37.7081V33.394C80.3954 32.5257 79.8845 32.1058 79.1275 32.1058ZM28.5634 14.9938C28.422 14.1827 27.8771 13.7827 27.1683 13.7827H24.658C22.0458 13.7827 19.7406 15.1808 18.4488 17.2928C18.4488 17.2928 16.0531 21.1586 13.3686 25.5096H30.4115L28.5634 14.9938ZM56.6352 15.0667C56.6352 14.2039 56.1258 13.7827 55.3631 13.7827H50.2533C49.4963 13.7827 48.9854 14.2039 48.9854 15.0667V24.8401L44.1418 16.0534C43.1738 14.4341 41.5438 13.8185 39.6419 13.7827H35.8652C35.1151 13.7827 34.6028 14.2039 34.6028 15.0667V25.5154H40.9508L41.9272 27.262H34.6028V37.7081C34.6028 38.5704 35.1151 38.999 35.8652 38.999H40.9876C41.7488 38.999 42.2526 38.5704 42.2526 37.7081L42.2498 27.8731L47.1388 36.7312C48.0968 38.342 49.7326 38.9576 51.6216 38.999H55.3631C56.1258 38.999 56.6352 38.5704 56.6352 37.7081V27.262H50.3326L49.3589 25.5154H56.6352V15.0667ZM30.7143 27.262H22.2976C22.5126 28.45 24.0651 37.284 24.1571 37.798C24.3 38.5934 24.791 38.999 25.5112 38.999H31.3017C31.8321 38.999 32.0997 38.8305 32.3488 38.525C32.5186 38.3121 32.5893 37.9893 32.51 37.5166L30.7143 27.262ZM6.00335 37.4182C5.77413 37.8137 5.77414 38.2293 5.91418 38.4991C6.0755 38.8147 6.4349 38.999 6.82268 38.999H12.8366C13.595 38.999 14.273 38.5863 14.6507 37.9694L21.2873 27.262H12.2847C9.19425 32.2615 6.08112 37.3025 6.00335 37.4182ZM60.5253 20.6603H68.9872L65.3379 25.5096H75.2035L78.8019 20.733C79.9128 19.2564 80.1702 17.9341 80.1702 16.7645V15.1009C80.1702 14.2482 79.6595 13.7827 78.8813 13.7827H60.5253C59.7681 13.7827 59.2616 14.2039 59.2616 15.0667V19.3807C59.2616 20.2404 59.7681 20.6603 60.5253 20.6603Z" fill="white"/>
<defs>
<linearGradient id="paint0_linear_20_46" x1="102.459" y1="40.0176" x2="102.459" y2="3.02681" gradientUnits="userSpaceOnUse">
<stop stop-color="#007DBA"/>
<stop offset="1" stop-color="#5BC6E8"/>
</linearGradient>
</defs>
</svg>
